{
  "accessors": [
    {
      "bufferView": 1,
      "componentType": 5126,
      "count": 65532,
      "max": [
        2.614967107772827,
        0.6987059712409973,
        0.8930709958076477
      ],
      "min": [
        1.7490780353546143,
        -1.1438709497451782,
        -1.1530460119247437
      ],
      "type": "VEC3"
    },
    {
      "bufferView": 1,
      "byteOffset": 786384,
      "componentType": 5126,
      "count": 65532,
      "max": [
        0.999991774559021,
        0.9622326493263245,
        0.9998942613601685
      ],
      "min": [
        -0.7178166508674622,
        -0.9811668395996094,
        -0.9209571480751038
      ],
      "type": "VEC3"
    },
    {
      "bufferView": 0,
      "componentType": 5125,
      "count": 376653,
      "type": "SCALAR"
    },
    {
      "bufferView": 1,
      "byteOffset": 1572768,
      "componentType": 5126,
      "count": 65532,
      "max": [
        2.238795042037964,
        0.8463050127029419,
        0.8930709958076477
      ],
      "min": [
        1.1178799867630005,
        -1.3068909645080566,
        -1.4948389530181885
      ],
      "type": "VEC3"
    },
    {
      "bufferView": 1,
      "byteOffset": 2359152,
      "componentType": 5126,
      "count": 65532,
      "max": [
        0.999991774559021,
        0.9998922348022461,
        0.9999979734420776
      ],
      "min": [
        -0.8392338752746582,
        -0.9999123811721802,
        -0.9973347783088684
      ],
      "type": "VEC3"
    },
    {
      "bufferView": 0,
      "byteOffset": 1506612,
      "componentType": 5125,
      "count": 343203,
      "type": "SCALAR"
    },
    {
      "bufferView": 1,
      "byteOffset": 3145536,
      "componentType": 5126,
      "count": 65532,
      "max": [
        1.9080979824066162,
        0.9106990098953247,
        0.8651880025863647
      ],
      "min": [
        0.8815069794654846,
        -1.4047139883041382,
        -1.762449026107788
      ],
      "type": "VEC3"
    },
    {
      "bufferView": 1,
      "byteOffset": 3931920,
      "componentType": 5126,
      "count": 65532,
      "max": [
        0.9997120499610901,
        0.9999919533729553,
        0.9999982714653015
      ],
      "min": [
        -0.9769534468650818,
        -0.9999798536300659,
        -0.9998388290405273
      ],
      "type": "VEC3"
    },
    {
      "bufferView": 0,
      "byteOffset": 2879424,
      "componentType": 5125,
      "count": 331140,
      "type": "SCALAR"
    },
    {
      "bufferView": 1,
      "byteOffset": 4718304,
      "componentType": 5126,
      "count": 65532,
      "max": [
        1.5992259979248047,
        0.966825008392334,
        1.2829489707946777
      ],
      "min": [
        0.3599109947681427,
        -1.4399210214614868,
        -1.7595269680023193
      ],
      "type": "VEC3"
    },
    {
      "bufferView": 1,
      "byteOffset": 5504688,
      "componentType": 5126,
      "count": 65532,
      "max": [
        0.9936093688011169,
        0.9999969005584717,
        0.9999666810035706
      ],
      "min": [
        -0.9999887347221375,
        -0.9999914765357971,
        -0.9999863505363464
      ],
      "type": "VEC3"
    },
    {
      "bufferView": 0,
      "byteOffset": 4203984,
      "componentType": 5125,
      "count": 326286,
      "type": "SCALAR"
    },
    {
      "bufferView": 1,
      "byteOffset": 6291072,
      "componentType": 5126,
      "count": 65532,
      "max": [
        1.5632050037384033,
        1.1448990106582642,
        1.1537439823150635
      ],
      "min": [
        0.15669900178909302,
        -1.4267120361328125,
        -1.762449026107788
      ],
      "type": "VEC3"
    },
    {
      "bufferView": 1,
      "byteOffset": 7077456,
      "componentType": 5126,
      "count": 65532,
      "max": [
        0.9999635219573975,
        0.9999990463256836,
        0.9992401003837585
      ],
      "min": [
        -0.9999452233314514,
        -0.9997782707214355,
        -0.9998751878738403
      ],
      "type": "VEC3"
    },
    {
      "bufferView": 0,
      "byteOffset": 5509128,
      "componentType": 5125,
      "count": 315492,
      "type": "SCALAR"
    },
    {
      "bufferView": 1,
      "byteOffset": 7863840,
      "componentType": 5126,
      "count": 65532,
      "max": [
        1.2042659521102905,
        1.5857130289077759,
        1.8604789972305298
      ],
      "min": [
        -0.015955999493598938,
        -0.9682300090789795,
        -1.573747992515564
      ],
      "type": "VEC3"
    },
    {
      "bufferView": 1,
      "byteOffset": 8650224,
      "componentType": 5126,
      "count": 65532,
      "max": [
        0.9999960064888,
        0.9999969005584717,
        0.9999610185623169
      ],
      "min": [
        -0.9983296394348145,
        -0.999966561794281,
        -0.9894858598709106
      ],
      "type": "VEC3"
    },
    {
      "bufferView": 0,
      "byteOffset": 6771096,
      "componentType": 5125,
      "count": 339765,
      "type": "SCALAR"
    },
    {
      "bufferView": 1,
      "byteOffset": 9436608,
      "componentType": 5126,
      "count": 65532,
      "max": [
        0.9203770160675049,
        1.5577969551086426,
        1.2859970331192017
      ],
      "min": [
        -1.6507110595703125,
        -1.622567057609558,
        -1.3243780136108398
      ],
      "type": "VEC3"
    },
    {
      "bufferView": 1,
      "byteOffset": 10222992,
      "componentType": 5126,
      "count": 65532,
      "max": [
        0.9990991950035095,
        0.999951958656311,
        0.9044836759567261
      ],
      "min": [
        -0.9999890923500061,
        -0.9999959468841553,
        -0.9994925856590271
      ],
      "type": "VEC3"
    },
    {
      "bufferView": 0,
      "byteOffset": 8130156,
      "componentType": 5125,
      "count": 347112,
      "type": "SCALAR"
    },
    {
      "bufferView": 1,
      "byteOffset": 11009376,
      "componentType": 5126,
      "count": 65532,
      "max": [
        -0.08075200021266937,
        1.6900960206985474,
        0.09390600025653839
      ],
      "min": [
        -1.5036760568618774,
        -1.468809962272644,
        -1.4688910245895386
      ],
      "type": "VEC3"
    },
    {
      "bufferView": 1,
      "byteOffset": 11795760,
      "componentType": 5126,
      "count": 65532,
      "max": [
        0.9999451637268066,
        0.9999825954437256,
        0.7495353817939758
      ],
      "min": [
        -0.8193074464797974,
        -0.998821496963501,
        -0.9999945163726807
      ],
      "type": "VEC3"
    },
    {
      "bufferView": 0,
      "byteOffset": 9518604,
      "componentType": 5125,
      "count": 360945,
      "type": "SCALAR"
    },
    {
      "bufferView": 1,
      "byteOffset": 12582144,
      "componentType": 5126,
      "count": 65532,
      "max": [
        0.05145899951457977,
        1.1366289854049683,
        1.5860379934310913
      ],
      "min": [
        -1.7401920557022095,
        -1.6041300296783447,
        -1.4661699533462524
      ],
      "type": "VEC3"
    },
    {
      "bufferView": 1,
      "byteOffset": 13368528,
      "componentType": 5126,
      "count": 65532,
      "max": [
        0.9996016025543213,
        0.8885210156440735,
        0.9999094605445862
      ],
      "min": [
        -0.9891737699508667,
        -0.9999876022338867,
        -0.9999973177909851
      ],
      "type": "VEC3"
    },
    {
      "bufferView": 0,
      "byteOffset": 10962384,
      "componentType": 5125,
      "count": 349686,
      "type": "SCALAR"
    },
    {
      "bufferView": 1,
      "byteOffset": 14154912,
      "componentType": 5126,
      "count": 65532,
      "max": [
        -0.8088499903678894,
        1.4505970478057861,
        1.0492949485778809
      ],
      "min": [
        -2.0727670192718506,
        -1.6237030029296875,
        -1.4680429697036743
      ],
      "type": "VEC3"
    },
    {
      "bufferView": 1,
      "byteOffset": 14941296,
      "componentType": 5126,
      "count": 65532,
      "max": [
        0.9554484486579895,
        0.9999208450317383,
        0.9977981448173523
      ],
      "min": [
        -0.9998860359191895,
        -0.9999794363975525,
        -0.9999951124191284
      ],
      "type": "VEC3"
    },
    {
      "bufferView": 0,
      "byteOffset": 12361128,
      "componentType": 5125,
      "count": 320145,
      "type": "SCALAR"
    },
    {
      "bufferView": 1,
      "byteOffset": 15727680,
      "componentType": 5126,
      "count": 65532,
      "max": [
        -1.0931470394134521,
        1.2391109466552734,
        0.5499709844589233
      ],
      "min": [
        -2.447679042816162,
        -1.410493016242981,
        -1.4891070127487183
      ],
      "type": "VEC3"
    },
    {
      "bufferView": 1,
      "byteOffset": 16514064,
      "componentType": 5126,
      "count": 65532,
      "max": [
        0.8850443959236145,
        0.9626919627189636,
        0.9993720054626465
      ],
      "min": [
        -0.9999836087226868,
        -0.9978165626525879,
        -0.9998053908348083
      ],
      "type": "VEC3"
    },
    {
      "bufferView": 0,
      "byteOffset": 13641708,
      "componentType": 5125,
      "count": 353889,
      "type": "SCALAR"
    },
    {
      "bufferView": 1,
      "byteOffset": 17300448,
      "componentType": 5126,
      "count": 65532,
      "max": [
        0.05219100043177605,
        1.1477149724960327,
        1.6574280261993408
      ],
      "min": [
        -2.4535739421844482,
        -1.568532943725586,
        -1.4916629791259766
      ],
      "type": "VEC3"
    },
    {
      "bufferView": 1,
      "byteOffset": 18086832,
      "componentType": 5126,
      "count": 65532,
      "max": [
        0.9430645108222961,
        0.9936310648918152,
        0.9992544651031494
      ],
      "min": [
        -0.999995231628418,
        -0.9999734163284302,
        -0.9999967813491821
      ],
      "type": "VEC3"
    },
    {
      "bufferView": 0,
      "byteOffset": 15057264,
      "componentType": 5125,
      "count": 288999,
      "type": "SCALAR"
    },
    {
      "bufferView": 1,
      "byteOffset": 18873216,
      "componentType": 5126,
      "count": 65532,
      "max": [
        0.5571699738502502,
        1.6900080442428589,
        1.6775729656219482
      ],
      "min": [
        -0.9168630242347717,
        -1.5038319826126099,
        -1.3121130466461182
      ],
      "type": "VEC3"
    },
    {
      "bufferView": 1,
      "byteOffset": 19659600,
      "componentType": 5126,
      "count": 65532,
      "max": [
        0.9997873902320862,
        0.9999794960021973,
        0.9999094605445862
      ],
      "min": [
        -0.9996194839477539,
        -0.9997527003288269,
        -0.9999212026596069
      ],
      "type": "VEC3"
    },
    {
      "bufferView": 0,
      "byteOffset": 16213260,
      "componentType": 5125,
      "count": 320589,
      "type": "SCALAR"
    },
    {
      "bufferView": 1,
      "byteOffset": 20445984,
      "componentType": 5126,
      "count": 65532,
      "max": [
        0.6808739900588989,
        1.645480990409851,
        1.943343997001648
      ],
      "min": [
        -0.3911629915237427,
        -1.3778760433197021,
        -1.0604710578918457
      ],
      "type": "VEC3"
    },
    {
      "bufferView": 1,
      "byteOffset": 21232368,
      "componentType": 5126,
      "count": 65532,
      "max": [
        0.9999507665634155,
        0.9999964833259583,
        0.9999610185623169
      ],
      "min": [
        -0.9996194839477539,
        -0.9985589981079102,
        -0.9999587535858154
      ],
      "type": "VEC3"
    },
    {
      "bufferView": 0,
      "byteOffset": 17495616,
      "componentType": 5125,
      "count": 329880,
      "type": "SCALAR"
    },
    {
      "bufferView": 1,
      "byteOffset": 22018752,
      "componentType": 5126,
      "count": 65532,
      "max": [
        0.9382590055465698,
        1.6365070343017578,
        1.953423023223877
      ],
      "min": [
        -0.3716900050640106,
        -1.0002720355987549,
        -1.548503041267395
      ],
      "type": "VEC3"
    },
    {
      "bufferView": 1,
      "byteOffset": 22805136,
      "componentType": 5126,
      "count": 65532,
      "max": [
        0.9998809099197388,
        0.9999945759773254,
        0.9999687075614929
      ],
      "min": [
        -0.9998344779014587,
        -0.999966561794281,
        -0.9983221292495728
      ],
      "type": "VEC3"
    },
    {
      "bufferView": 0,
      "byteOffset": 18815136,
      "componentType": 5125,
      "count": 296952,
      "type": "SCALAR"
    },
    {
      "bufferView": 1,
      "byteOffset": 23591520,
      "componentType": 5126,
      "count": 323,
      "max": [
        0.9650430083274841,
        0.7366520166397095,
        -0.6888300180435181
      ],
      "min": [
        0.48378801345825195,
        0.5424680113792419,
        -1.2133400440216064
      ],
      "type": "VEC3"
    },
    {
      "bufferView": 1,
      "byteOffset": 23595396,
      "componentType": 5126,
      "count": 323,
      "max": [
        0.185805544257164,
        0.9818856716156006,
        -0.13004177808761597
      ],
      "min": [
        -0.7440448999404907,
        0.4726419448852539,
        -0.6892117261886597
      ],
      "type": "VEC3"
    },
    {
      "bufferView": 0,
      "byteOffset": 20002944,
      "componentType": 5125,
      "count": 480,
      "type": "SCALAR"
    }
  ],
  "asset": {
    "extras": {
      "author": "Steren (https://sketchfab.com/steren)",
      "license": "CC-BY-SA-4.0 (http://creativecommons.org/licenses/by-sa/4.0/)",
      "source": "https://sketchfab.com/3d-models/esa-rosetta-comet-7748236dd9c64130a105acb53f69b7b5",
      "title": "ESA Rosetta comet"
    },
    "generator": "Sketchfab-12.67.0",
    "version": "2.0"
  },
  "bufferViews": [
    {
      "buffer": 0,
      "byteLength": 20004864,
      "name": "floatBufferViews",
      "target": 34963
    },
    {
      "buffer": 0,
      "byteLength": 23599272,
      "byteOffset": 20004864,
      "byteStride": 12,
      "name": "floatBufferViews",
      "target": 34962
    }
  ],
  "buffers": [
    {
      "byteLength": 43604136,
      "uri": "scene.bin"
    }
  ],
  "extensionsRequired": [
    "KHR_materials_pbrSpecularGlossiness"
  ],
  "extensionsUsed": [
    "KHR_materials_pbrSpecularGlossiness"
  ],
  "materials": [
    {
      "doubleSided": true,
      "extensions": {
        "KHR_materials_pbrSpecularGlossiness": {
          "diffuseFactor": [
            0.8014945267390895,
            0.8014945267390895,
            0.8014945267390895,
            1.0
          ],
          "glossinessFactor": 0.0,
          "specularFactor": [
            0.15,
            0.15,
            0.15
          ]
        }
      },
      "name": "material_0"
    }
  ],
  "meshes": [
    {
      "name": "Object_0",
      "primitives": [
        {
          "attributes": {
            "NORMAL": 1,
            "POSITION": 0
          },
          "indices": 2,
          "material": 0,
          "mode": 4
        }
      ]
    },
    {
      "name": "Object_1",
      "primitives": [
        {
          "attributes": {
            "NORMAL": 4,
            "POSITION": 3
          },
          "indices": 5,
          "material": 0,
          "mode": 4
        }
      ]
    },
    {
      "name": "Object_2",
      "primitives": [
        {
          "attributes": {
            "NORMAL": 7,
            "POSITION": 6
          },
          "indices": 8,
          "material": 0,
          "mode": 4
        }
      ]
    },
    {
      "name": "Object_3",
      "primitives": [
        {
          "attributes": {
            "NORMAL": 10,
            "POSITION": 9
          },
          "indices": 11,
          "material": 0,
          "mode": 4
        }
      ]
    },
    {
      "name": "Object_4",
      "primitives": [
        {
          "attributes": {
            "NORMAL": 13,
            "POSITION": 12
          },
          "indices": 14,
          "material": 0,
          "mode": 4
        }
      ]
    },
    {
      "name": "Object_5",
      "primitives": [
        {
          "attributes": {
            "NORMAL": 16,
            "POSITION": 15
          },
          "indices": 17,
          "material": 0,
          "mode": 4
        }
      ]
    },
    {
      "name": "Object_6",
      "primitives": [
        {
          "attributes": {
            "NORMAL": 19,
            "POSITION": 18
          },
          "indices": 20,
          "material": 0,
          "mode": 4
        }
      ]
    },
    {
      "name": "Object_7",
      "primitives": [
        {
          "attributes": {
            "NORMAL": 22,
            "POSITION": 21
          },
          "indices": 23,
          "material": 0,
          "mode": 4
        }
      ]
    },
    {
      "name": "Object_8",
      "primitives": [
        {
          "attributes": {
            "NORMAL": 25,
            "POSITION": 24
          },
          "indices": 26,
          "material": 0,
          "mode": 4
        }
      ]
    },
    {
      "name": "Object_9",
      "primitives": [
        {
          "attributes": {
            "NORMAL": 28,
            "POSITION": 27
          },
          "indices": 29,
          "material": 0,
          "mode": 4
        }
      ]
    },
    {
      "name": "Object_10",
      "primitives": [
        {
          "attributes": {
            "NORMAL": 31,
            "POSITION": 30
          },
          "indices": 32,
          "material": 0,
          "mode": 4
        }
      ]
    },
    {
      "name": "Object_11",
      "primitives": [
        {
          "attributes": {
            "NORMAL": 34,
            "POSITION": 33
          },
          "indices": 35,
          "material": 0,
          "mode": 4
        }
      ]
    },
    {
      "name": "Object_12",
      "primitives": [
        {
          "attributes": {
            "NORMAL": 37,
            "POSITION": 36
          },
          "indices": 38,
          "material": 0,
          "mode": 4
        }
      ]
    },
    {
      "name": "Object_13",
      "primitives": [
        {
          "attributes": {
            "NORMAL": 40,
            "POSITION": 39
          },
          "indices": 41,
          "material": 0,
          "mode": 4
        }
      ]
    },
    {
      "name": "Object_14",
      "primitives": [
        {
          "attributes": {
            "NORMAL": 43,
            "POSITION": 42
          },
          "indices": 44,
          "material": 0,
          "mode": 4
        }
      ]
    },
    {
      "name": "Object_15",
      "primitives": [
        {
          "attributes": {
            "NORMAL": 46,
            "POSITION": 45
          },
          "indices": 47,
          "material": 0,
          "mode": 4
        }
      ]
    }
  ],
  "nodes": [
    {
      "children": [
        1
      ],
      "matrix": [
        -0.053659938275814056,
        0.6319930553436282,
        -0.7731140851974486,
        0.0,
        0.998185932636261,
        0.012779322452843203,
        -0.0588349811732769,
        0.0,
        -0.0273034255951643,
        -0.7748686671257018,
        -0.6315323114395144,
        0.0,
        -0.09121156483888626,
        0.4435572326183319,
        0.0658198818564416,
        1.0
      ],
      "name": "Sketchfab_model"
    },
    {
      "children": [
        2,
        3,
        4,
        5,
        6,
        7,
        8,
        9,
        10,
        11,
        12,
        13,
        14,
        15,
        16,
        17
      ],
      "name": "CSHP_DV_130_01_HIRES_00200.obj.cleaner"
    },
    {
      "mesh": 0,
      "name": "Object_2"
    },
    {
      "mesh": 1,
      "name": "Object_3"
    },
    {
      "mesh": 2,
      "name": "Object_4"
    },
    {
      "mesh": 3,
      "name": "Object_5"
    },
    {
      "mesh": 4,
      "name": "Object_6"
    },
    {
      "mesh": 5,
      "name": "Object_7"
    },
    {
      "mesh": 6,
      "name": "Object_8"
    },
    {
      "mesh": 7,
      "name": "Object_9"
    },
    {
      "mesh": 8,
      "name": "Object_10"
    },
    {
      "mesh": 9,
      "name": "Object_11"
    },
    {
      "mesh": 10,
      "name": "Object_12"
    },
    {
      "mesh": 11,
      "name": "Object_13"
    },
    {
      "mesh": 12,
      "name": "Object_14"
    },
    {
      "mesh": 13,
      "name": "Object_15"
    },
    {
      "mesh": 14,
      "name": "Object_16"
    },
    {
      "mesh": 15,
      "name": "Object_17"
    }
  ],
  "scene": 0,
  "scenes": [
    {
      "name": "Sketchfab_Scene",
      "nodes": [
        0
      ]
    }
  ]
}
